<!-- Generator: Adobe Illustrator 19.0.1, SVG Export Plug-In . SVG Version: 
6.00 Build 0)  --><svg xmlns="http://www.w3.org/2000/svg" id="Ebene_1" style="" viewBox="0 0 466.1 97" xmlns:xml="http://www.w3.org/XML/1998/namespace" xml:space="preserve" version="1.1"> 
<style type="text/css">
	.st0{fill-rule:evenodd;clip-rule:evenodd;fill:#2D2E83;}
	.st1{fill:#2D2E83;}
	.st2{fill:#E94E1B;}
	.st3{fill:url(#SVGID_1_);}
	.st4{opacity:0.4;fill:url(#SVGID_2_);}
	.st5{fill:none;}
	.st6{fill:url(#SVGID_3_);}
	.st7{fill:#FFFFFF;}
	.st8{fill:url(#SVGID_4_);}
	.st9{fill:url(#SVGID_5_);}
	.st10{fill:url(#SVGID_6_);}
</style> 
<path class="st0" d="M 289.8 38.8 v 8 c 0 2.2 1.8 4 4 4 h 24 c 2.2 0 4 -1.8 4 -4 v -8 c 0 -2.2 -1.8 -4 -4 -4 h -24 C 291.6 34.8 289.8 36.6 289.8 38.8 L 289.8 38.8 L 289.8 38.8 Z M 281.8 37.5 c 0 -5.9 4.8 -10.7 10.7 -10.7 H 319 c 5.9 0 10.7 4.8 10.7 10.7 v 10.5 c 0 5.9 -4.8 10.7 -10.7 10.7 h -26.5 c -5.9 0 -10.7 -4.8 -10.7 -10.7 V 37.5 L 281.8 37.5 L 281.8 37.5 Z" 
/> <path class="st1" d="M 345.8 38.8 v 8 c 0 2.2 1.8 4 4 4 h 24 c 2.2 0 4 -1.8 4 -4 v -8 c 0 -2.2 -1.8 -4 -4 -4 h -24 C 347.6 34.8 345.8 36.6 345.8 38.8 L 345.8 38.8 L 345.8 38.8 Z M 337.8 37.5 c 0 -5.9 4.8 -10.7 10.7 -10.7 H 375 c 5.9 0 10.7 4.8 10.7 10.7 v 10.5 c 0 5.9 -4.8 10.7 -10.7 10.7 h -26.5 c -5.9 0 -10.7 -4.8 -10.7 -10.7 V 37.5 L 337.8 37.5 L 337.8 37.5 Z" 
/> <path class="st1" d="M 149.7 34.8 h -24 c -2.2 0 -4 1.8 -4 4 v 8 c 0 2.2 1.8 4 4 4 h 24 h -0.2 h 10.3 v 8 h -35.3 c -5.9 0 -10.7 -4.8 -10.7 -10.7 V 37.5 c 0 -5.9 4.8 -10.7 10.7 -10.7 h 35.3 v 8 h -10.3 C 149.4 34.8 151.9 34.8 149.7 34.8 L 149.7 34.8 L 149.7 34.8 Z" 
/> <path class="st1" d="M 178.7 58.8 C 172.8 58.8 168 54 168 48 V 37.5 c 0 -5.9 4.8 -10.7 10.7 -10.7 h 37.2 v 31.9 h -8 v -24 h -8.3 c 0 0 6.5 0 4.3 0 l 0 0 l 0 0 h -24 c -2.2 0 -4 1.8 -4 4 v 8 c 0 2.2 1.8 4 4 4 h 26.2 v 8" 
/> <path class="st1" d="M 262.6 58.8 h -26.5 c -5.9 0 -10.7 -4.8 -10.7 -10.7 V 37.5 c 0 -5.9 4.8 -10.7 10.7 -10.7 h 27.4 v 8 H 254 h 3.2 h -19.8 c -2.2 0 -4 1.8 -4 4 v 8 c 0 2.2 1.8 4 4 4 h 24 h -1 h 4.9 V 10.8 h 8 v 47.9 h -15 C 258.3 58.8 268.5 58.8 262.6 58.8 L 262.6 58.8 L 262.6 58.8 Z" 
/> <path class="st1" d="M 440.2 50.8 c -1.2 4.6 -5.4 8 -10.4 8 h -26.5 c -5 0 -9.2 -3.4 -10.4 -8 l 31.7 -16 H 393 c 1.2 -4.6 5.4 -8 10.4 -8 h 26.5 c 5 0 9.2 3.4 10.4 8 l -31.5 16 L 440.2 50.8 L 440.2 50.8 L 440.2 50.8 Z" 
/> <g><path class="st2" d="M 125.3 70.9 c 0.5 0 1 0.1 1.5 0.3 c 0.4 0.2 0.8 0.4 1.1 0.7 c 0.3 0.3 0.6 0.7 0.7 1.1 c 0.2 0.4 0.2 0.8 0.2 1.3 c 0 0.7 -0.2 1.3 -0.5 1.9 c -0.3 0.5 -0.8 0.9 -1.5 1.2 v 0 c 0.3 0.1 0.6 0.2 0.8 0.4 c 0.2 0.2 0.4 0.4 0.5 0.7 c 0.1 0.3 0.2 0.5 0.3 0.8 c 0.1 0.3 0.1 0.6 0.1 0.9 c 0 0.2 0 0.4 0 0.7 c 0 0.3 0 0.5 0.1 0.8 c 0 0.3 0.1 0.5 0.1 0.8 c 0.1 0.2 0.2 0.5 0.3 0.6 h -2.7 c -0.1 -0.4 -0.2 -0.8 -0.3 -1.4 c 0 -0.5 -0.1 -1 -0.2 -1.5 c -0.1 -0.6 -0.3 -1.1 -0.6 -1.4 s -0.8 -0.4 -1.5 -0.4 h -2.7 v 4.8 h -2.7 V 70.9 H 125.3 Z M 124.3 76.5 c 0.6 0 1.1 -0.1 1.4 -0.4 c 0.3 -0.3 0.5 -0.7 0.5 -1.3 c 0 -0.6 -0.2 -1 -0.5 -1.3 c -0.3 -0.3 -0.8 -0.4 -1.4 -0.4 h -2.9 v 3.4 H 124.3 Z" 
/>	 <path class="st2" d="M 145.3 70.9 v 2.3 h -6.5 v 2.6 h 5.9 v 2.1 h -5.9 v 3 h 6.6 v 2.3 h -9.3 V 70.9 H 145.3 Z" 
/>	 <path class="st2" d="M 161.4 83.2 l -2.1 -8.3 h 0 l -2 8.3 h -2.7 l -3.2 -12.2 h 2.7 l 1.9 8.3 h 0 l 2.1 -8.3 h 2.5 l 2.1 8.4 h 0 l 2 -8.4 h 2.6 L 164 83.2 H 161.4 Z" 
/>	 <path class="st2" d="M 179.4 70.9 l 4.6 12.2 h -2.8 l -0.9 -2.7 h -4.6 l -1 2.7 H 172 l 4.6 -12.2 H 179.4 Z M 179.5 78.4 l -1.5 -4.5 h 0 l -1.6 4.5 H 179.5 Z" 
/>	 <path class="st2" d="M 196.7 70.9 c 0.5 0 1 0.1 1.5 0.3 c 0.4 0.2 0.8 0.4 1.1 0.7 c 0.3 0.3 0.6 0.7 0.7 1.1 c 0.2 0.4 0.2 0.8 0.2 1.3 c 0 0.7 -0.2 1.3 -0.5 1.9 c -0.3 0.5 -0.8 0.9 -1.5 1.2 v 0 c 0.3 0.1 0.6 0.2 0.8 0.4 c 0.2 0.2 0.4 0.4 0.5 0.7 c 0.1 0.3 0.2 0.5 0.3 0.8 c 0.1 0.3 0.1 0.6 0.1 0.9 c 0 0.2 0 0.4 0 0.7 c 0 0.3 0 0.5 0.1 0.8 c 0 0.3 0.1 0.5 0.1 0.8 c 0.1 0.2 0.2 0.5 0.3 0.6 H 198 c -0.1 -0.4 -0.2 -0.8 -0.3 -1.4 c 0 -0.5 -0.1 -1 -0.2 -1.5 c -0.1 -0.6 -0.3 -1.1 -0.6 -1.4 s -0.8 -0.4 -1.5 -0.4 h -2.7 v 4.8 h -2.7 V 70.9 H 196.7 Z M 195.8 76.5 c 0.6 0 1.1 -0.1 1.4 -0.4 c 0.3 -0.3 0.5 -0.7 0.5 -1.3 c 0 -0.6 -0.2 -1 -0.5 -1.3 c -0.3 -0.3 -0.8 -0.4 -1.4 -0.4 h -2.9 v 3.4 H 195.8 Z" 
/>	 <path class="st2" d="M 212.9 70.9 c 0.8 0 1.5 0.1 2.2 0.4 c 0.7 0.3 1.3 0.6 1.8 1.1 c 0.5 0.5 0.9 1.1 1.2 1.9 c 0.3 0.8 0.4 1.6 0.4 2.7 c 0 0.9 -0.1 1.7 -0.3 2.5 c -0.2 0.8 -0.6 1.4 -1 2 c -0.5 0.5 -1 1 -1.7 1.3 c -0.7 0.3 -1.5 0.5 -2.4 0.5 h -5.3 V 70.9 H 212.9 Z M 212.7 80.9 c 0.4 0 0.8 -0.1 1.1 -0.2 c 0.4 -0.1 0.7 -0.3 1 -0.6 c 0.3 -0.3 0.5 -0.7 0.7 -1.1 c 0.2 -0.5 0.3 -1 0.3 -1.7 c 0 -0.6 -0.1 -1.2 -0.2 -1.7 c -0.1 -0.5 -0.3 -0.9 -0.6 -1.3 c -0.3 -0.4 -0.6 -0.6 -1.1 -0.8 c -0.5 -0.2 -1 -0.3 -1.7 -0.3 h -1.9 v 7.7 H 212.7 Z" />	 <path class="st2" d="M 228.1 70.9 v 12.2 h -2.7 V 70.9 H 228.1 Z" />	 <path class="st2" d="M 238.3 70.9 l 5.1 8.2 h 0 v -8.2 h 2.5 v 12.2 h -2.7 l -5.1 -8.2 h 0 v 8.2 h -2.5 V 70.9 H 238.3 Z" 
/>	 <path class="st2" d="M 259.7 83.1 c -0.6 0.2 -1.2 0.4 -1.8 0.4 c -0.9 0 -1.8 -0.2 -2.5 -0.5 c -0.7 -0.3 -1.4 -0.8 -1.9 -1.3 c -0.5 -0.6 -0.9 -1.2 -1.2 -2 S 252 78 252 77.1 c 0 -0.9 0.1 -1.8 0.4 -2.5 c 0.3 -0.8 0.7 -1.5 1.2 -2 c 0.5 -0.6 1.1 -1 1.9 -1.4 c 0.7 -0.3 1.6 -0.5 2.5 -0.5 c 0.6 0 1.2 0.1 1.8 0.3 c 0.6 0.2 1.1 0.5 1.6 0.8 c 0.5 0.4 0.9 0.8 1.2 1.4 c 0.3 0.5 0.5 1.2 0.6 1.8 h -2.6 c -0.2 -0.7 -0.5 -1.2 -0.9 -1.5 c -0.5 -0.3 -1 -0.5 -1.7 -0.5 c -0.6 0 -1.1 0.1 -1.5 0.4 c -0.4 0.2 -0.8 0.5 -1 0.9 c -0.3 0.4 -0.5 0.8 -0.6 1.3 c -0.1 0.5 -0.2 1 -0.2 1.6 c 0 0.5 0.1 1 0.2 1.5 c 0.1 0.5 0.3 0.9 0.6 1.3 c 0.3 0.4 0.6 0.7 1 0.9 c 0.4 0.2 0.9 0.4 1.5 0.4 c 0.9 0 1.6 -0.2 2.1 -0.7 c 0.5 -0.5 0.8 -1.1 0.8 -2 h -2.7 v -2 h 5.1 v 6.6 h -1.7 l -0.3 -1.4 C 260.8 82.4 260.3 82.8 259.7 83.1 Z" 
/>	 <path class="st2" d="M 288.7 70.9 v 2.3 h -6.5 v 2.6 h 5.9 v 2.1 h -5.9 v 3 h 6.6 v 2.3 h -9.3 V 70.9 H 288.7 Z" 
/>	 <path class="st2" d="M 294.8 70.9 h 3.1 l 2.4 3.9 l 2.5 -3.9 h 2.9 l -3.9 5.8 l 4.3 6.4 h -3.2 l -2.7 -4.2 l -2.7 4.2 h -3 l 4.3 -6.4 L 294.8 70.9 Z" 
/>	 <path class="st2" d="M 319.2 74.2 c -0.2 -0.3 -0.4 -0.5 -0.6 -0.7 c -0.2 -0.2 -0.5 -0.3 -0.8 -0.5 c -0.3 -0.1 -0.6 -0.2 -1 -0.2 c -0.6 0 -1.1 0.1 -1.5 0.4 c -0.4 0.2 -0.8 0.5 -1 0.9 c -0.3 0.4 -0.5 0.8 -0.6 1.3 c -0.1 0.5 -0.2 1 -0.2 1.6 c 0 0.5 0.1 1 0.2 1.5 c 0.1 0.5 0.3 0.9 0.6 1.3 c 0.3 0.4 0.6 0.7 1 0.9 c 0.4 0.2 0.9 0.4 1.5 0.4 c 0.8 0 1.5 -0.3 1.9 -0.8 c 0.5 -0.5 0.7 -1.2 0.8 -2 h 2.6 c -0.1 0.8 -0.2 1.5 -0.5 2.1 c -0.3 0.6 -0.7 1.1 -1.1 1.6 c -0.5 0.4 -1 0.8 -1.6 1 c -0.6 0.2 -1.3 0.3 -2.1 0.3 c -0.9 0 -1.8 -0.2 -2.5 -0.5 c -0.7 -0.3 -1.4 -0.8 -1.9 -1.3 c -0.5 -0.6 -0.9 -1.2 -1.2 -2 s -0.4 -1.6 -0.4 -2.5 c 0 -0.9 0.1 -1.8 0.4 -2.5 c 0.3 -0.8 0.7 -1.5 1.2 -2 c 0.5 -0.6 1.1 -1 1.9 -1.4 c 0.7 -0.3 1.6 -0.5 2.5 -0.5 c 0.7 0 1.3 0.1 1.9 0.3 c 0.6 0.2 1.1 0.5 1.6 0.8 c 0.5 0.4 0.9 0.8 1.2 1.4 c 0.3 0.5 0.5 1.2 0.6 1.9 h -2.6 C 319.5 74.7 319.4 74.5 319.2 74.2 Z" 
/>	 <path class="st2" d="M 338.3 70.9 v 2.3 h -6.5 v 2.6 h 5.9 v 2.1 h -5.9 v 3 h 6.6 v 2.3 h -9.3 V 70.9 H 338.3 Z" 
/>	 <path class="st2" d="M 348.1 70.9 v 10 h 6 v 2.3 h -8.6 V 70.9 H 348.1 Z" />
	 <path class="st2" d="M 363.4 70.9 v 10 h 6 v 2.3 h -8.6 V 70.9 H 363.4 Z" />
	 <path class="st2" d="M 385.1 70.9 v 2.3 h -6.5 v 2.6 h 5.9 v 2.1 h -5.9 v 3 h 6.6 v 2.3 H 376 V 70.9 H 385.1 Z" 
/>	 <path class="st2" d="M 394.9 70.9 l 5.1 8.2 h 0 v -8.2 h 2.5 v 12.2 h -2.7 l -5.1 -8.2 h 0 v 8.2 h -2.5 V 70.9 H 394.9 Z" 
/>	 <path class="st2" d="M 416.9 74.2 c -0.2 -0.3 -0.4 -0.5 -0.6 -0.7 c -0.2 -0.2 -0.5 -0.3 -0.8 -0.5 c -0.3 -0.1 -0.6 -0.2 -1 -0.2 c -0.6 0 -1.1 0.1 -1.5 0.4 s -0.8 0.5 -1 0.9 c -0.3 0.4 -0.5 0.8 -0.6 1.3 c -0.1 0.5 -0.2 1 -0.2 1.6 c 0 0.5 0.1 1 0.2 1.5 c 0.1 0.5 0.3 0.9 0.6 1.3 c 0.3 0.4 0.6 0.7 1 0.9 c 0.4 0.2 0.9 0.4 1.5 0.4 c 0.8 0 1.5 -0.3 1.9 -0.8 c 0.5 -0.5 0.7 -1.2 0.8 -2 h 2.6 c -0.1 0.8 -0.2 1.5 -0.5 2.1 c -0.3 0.6 -0.7 1.1 -1.1 1.6 c -0.5 0.4 -1 0.8 -1.6 1 c -0.6 0.2 -1.3 0.3 -2.1 0.3 c -0.9 0 -1.8 -0.2 -2.5 -0.5 c -0.7 -0.3 -1.4 -0.8 -1.9 -1.3 c -0.5 -0.6 -0.9 -1.2 -1.2 -2 s -0.4 -1.6 -0.4 -2.5 c 0 -0.9 0.1 -1.8 0.4 -2.5 c 0.3 -0.8 0.7 -1.5 1.2 -2 c 0.5 -0.6 1.1 -1 1.9 -1.4 c 0.7 -0.3 1.6 -0.5 2.5 -0.5 c 0.7 0 1.3 0.1 1.9 0.3 c 0.6 0.2 1.1 0.5 1.6 0.8 c 0.5 0.4 0.9 0.8 1.2 1.4 c 0.3 0.5 0.5 1.2 0.6 1.9 h -2.6 C 417.1 74.7 417 74.5 416.9 74.2 Z" 
/>	 <path class="st2" d="M 434.9 70.9 v 2.3 h -6.5 v 2.6 h 5.9 v 2.1 h -5.9 v 3 h 6.6 v 2.3 h -9.3 V 70.9 H 434.9 Z" 
/> </g> <g><linearGradient id="SVGID_1_" gradientUnits="userSpaceOnUse" x1="39.9469" y1="69.0885" x2="89.7303" y2="19.3051"><stop style="stop-color: rgb(45, 46, 131);" offset="0" />		 <stop style="stop-color: rgb(45, 51, 134);" offset="0.1523" />
		 <stop style="stop-color: rgb(45, 63, 143);" offset="0.3951" />		 <stop style="stop-color: rgb(40, 85, 161);" offset="0.6975" />		 <stop style="stop-color: rgb(29, 112, 184);" offset="1" />	 </linearGradient>	 <path class="st3" d="M 20.3 27.3 c 0 -8.7 7.1 -15.8 15.8 -15.8 h 39.2 c 8.7 0 15.8 7.1 15.8 15.8 v 15.6 c 0 0.9 0.3 9.5 1.7 12.8 c 1.7 4 3.8 7 16.2 12.3 c 0.4 0.2 -25.8 -0.1 -35.5 -9.3 H 36.1 c -8.7 0 -15.8 -7.1 -15.8 -15.8 V 27.3 L 20.3 27.3 L 20.3 27.3 Z" />	 <linearGradient id="SVGID_2_" gradientUnits="userSpaceOnUse" x1="23.742" y1="25.5748" x2="91.147" y2="25.5748"><stop style="stop-color: rgb(255, 255, 255); stop-opacity: 0;" offset="0" />		 <stop style="stop-color: rgb(255, 255, 255);" offset="1" />
	 </linearGradient>	 <path class="st4" d="M 75.3 11.4 H 36.1 c -5 0 -9.5 2.3 -12.4 6 C 35.3 31.1 52 39.7 70.6 39.7 c 7.2 0 14.1 -1.3 20.5 -3.6 v -8.8 C 91.1 18.5 84.1 11.4 75.3 11.4 Z" 
/>	 <g><g><path class="st5" d="M 77.1 35.5 c 0 1.2 -0.4 2.3 -1.3 3.1 l -1.5 1.4 c -1.7 0.2 -3.6 0.3 -5.7 0.2 l 4.1 -4.1 c 0.2 -0.2 0.3 -0.4 0.3 -0.7 c 0 -0.3 -0.1 -0.5 -0.3 -0.7 L 62 23.9 c -0.2 -0.2 -0.4 -0.3 -0.7 -0.3 c -0.3 0 -0.5 0.1 -0.7 0.3 l -1.4 1.4 l -0.5 0.5 l -1.6 1.6 l -0.5 0.5 l -0.7 0.7 L 55.5 29 l -5.8 5.8 c -0.4 0.4 -0.4 1 0 1.4 l 0.2 0.2 c -1.5 -0.6 -3 -1.2 -4.4 -1.9 c 0.2 -0.8 0.6 -1.6 1.2 -2.2 l 6.6 -6.6 l 0.7 -0.7 l 0.5 -0.5 l 1.5 -1.5 l 0.5 -0.5 l 1.7 -1.7 c 0.9 -0.8 2 -1.3 3.1 -1.3 c 1.2 0 2.3 0.4 3.1 1.3 l 11.5 11.5 C 76.7 33.2 77.1 34.3 77.1 35.5 Z" 
/>			 <path class="st5" d="M 77.1 35.5 c 0 1.2 -0.4 2.3 -1.3 3.1 l -1.5 1.4 c -1.7 0.2 -3.6 0.3 -5.7 0.2 l 4.1 -4.1 c 0.2 -0.2 0.3 -0.4 0.3 -0.7 c 0 -0.3 -0.1 -0.5 -0.3 -0.7 L 62 23.9 c -0.2 -0.2 -0.4 -0.3 -0.7 -0.3 c -0.3 0 -0.5 0.1 -0.7 0.3 l -1.4 1.4 l -0.5 0.5 l -1.6 1.6 l -0.5 0.5 l -0.7 0.7 L 55.5 29 l -5.8 5.8 c -0.4 0.4 -0.4 1 0 1.4 l 0.2 0.2 c -1.5 -0.6 -3 -1.2 -4.4 -1.9 c 0.2 -0.8 0.6 -1.6 1.2 -2.2 l 6.6 -6.6 l 0.7 -0.7 l 0.5 -0.5 l 1.5 -1.5 l 0.5 -0.5 l 1.7 -1.7 c 0.9 -0.8 2 -1.3 3.1 -1.3 c 1.2 0 2.3 0.4 3.1 1.3 l 11.5 11.5 C 76.7 33.2 77.1 34.3 77.1 35.5 Z" 
/>			 <path class="st5" d="M 66.5 35.5 c 0 1.2 -0.5 2.3 -1.3 3.1 l -1.3 1.3 c -1.5 -0.2 -3.1 -0.4 -4.6 -0.8 l 2.9 -2.9 c 0.2 -0.2 0.3 -0.4 0.3 -0.7 c 0 -0.3 -0.1 -0.5 -0.3 -0.7 L 56.4 29 l 0.7 -0.7 l 0.5 -0.5 l 1.5 -1.5 l 6.1 6.1 C 66.1 33.2 66.5 34.3 66.5 35.5 Z" 
/>			 <path class="st5" d="M 66.5 35.5 c 0 1.2 -0.5 2.3 -1.3 3.1 l -1.3 1.3 c -1.5 -0.2 -3.1 -0.4 -4.6 -0.8 l 2.9 -2.9 c 0.2 -0.2 0.3 -0.4 0.3 -0.7 c 0 -0.3 -0.1 -0.5 -0.3 -0.7 L 56.4 29 l 0.7 -0.7 l 0.5 -0.5 l 1.5 -1.5 l 6.1 6.1 C 66.1 33.2 66.5 34.3 66.5 35.5 Z" 
/>			 <path class="st5" d="M 55.5 22.6 l -1.6 1.5 l -0.5 0.5 l -0.7 0.7 l -1.4 -1.4 c -0.2 -0.2 -0.4 -0.3 -0.7 -0.3 c -0.3 0 -0.5 0.1 -0.7 0.3 l -8.5 8.5 c -1.2 -0.7 -2.3 -1.4 -3.2 -2.2 l 9.3 -9.3 c 0.8 -0.8 1.9 -1.3 3.1 -1.3 c 1.2 0 2.3 0.4 3.1 1.3 L 55.5 22.6 Z" 
/>			 <path class="st5" d="M 55.5 22.6 l -1.6 1.5 l -0.5 0.5 l -0.7 0.7 l -1.4 -1.4 c -0.2 -0.2 -0.4 -0.3 -0.7 -0.3 c -0.3 0 -0.5 0.1 -0.7 0.3 l -8.5 8.5 c -1.2 -0.7 -2.3 -1.4 -3.2 -2.2 l 9.3 -9.3 c 0.8 -0.8 1.9 -1.3 3.1 -1.3 c 1.2 0 2.3 0.4 3.1 1.3 L 55.5 22.6 Z" 
/>		 </g>	 </g>	 <g><linearGradient id="SVGID_3_" gradientUnits="userSpaceOnUse" x1="52.3445" y1="44.0534" x2="70.7283" y2="25.6697"><stop style="stop-color: rgb(233, 78, 27);" offset="0" />			 <stop style="stop-color: rgb(243, 146, 0);" offset="1" />
		 </linearGradient>		 <path class="st6" d="M 77.7 35 c 0 1.2 -0.5 2.4 -1.3 3.2 L 64.6 50 c -0.9 0.9 -2 1.3 -3.2 1.3 c -1.2 0 -2.3 -0.5 -3.2 -1.3 l -1.7 -1.7 l 1.6 -1.6 l 0.5 -0.5 l 0.7 -0.7 l 1.5 1.4 c 0.2 0.2 0.5 0.3 0.7 0.3 c 0.3 0 0.5 -0.1 0.7 -0.3 l 11.2 -11.2 c 0.2 -0.2 0.3 -0.5 0.3 -0.7 c 0 -0.3 -0.1 -0.5 -0.3 -0.7 L 62.1 23.1 c -0.2 -0.2 -0.5 -0.3 -0.7 -0.3 c -0.3 0 -0.5 0.1 -0.7 0.3 l -1.5 1.4 L 58.7 25 l -1.6 1.6 l -0.5 0.5 l -0.7 0.7 l -0.5 0.5 l -6 6 c -0.4 0.4 -0.4 1 0 1.4 l 6 6 l -0.7 0.7 l -0.5 0.5 l -1.6 1.6 l -6.3 -6.3 c -0.9 -0.9 -1.3 -2 -1.3 -3.2 c 0 -1.2 0.5 -2.4 1.3 -3.2 l 6.8 -6.7 l 0.7 -0.7 l 0.5 -0.5 l 1.6 -1.6 l 0.5 -0.5 l 1.7 -1.7 c 0.9 -0.9 2 -1.3 3.2 -1.3 c 1.2 0 2.4 0.5 3.2 1.3 l 11.8 11.8 C 77.2 32.6 77.7 33.8 77.7 35 Z" 
/>		 <path class="st7" d="M 66.8 35 c 0 1.2 -0.5 2.4 -1.3 3.2 L 58.7 45 L 58 45.7 l -0.5 0.5 l -1.6 1.6 l -0.5 0.5 L 53.7 50 c -0.9 0.9 -2 1.3 -3.2 1.3 c -1.2 0 -2.4 -0.5 -3.2 -1.3 L 35.5 38.2 c -0.9 -0.9 -1.3 -2 -1.3 -3.2 c 0 -1.2 0.5 -2.4 1.3 -3.2 L 47.3 20 c 0.9 -0.9 2 -1.3 3.2 -1.3 c 1.2 0 2.4 0.5 3.2 1.3 l 1.7 1.7 l -1.6 1.6 l -0.5 0.5 l -0.7 0.7 l -1.4 -1.4 c -0.2 -0.2 -0.5 -0.3 -0.7 -0.3 c -0.3 0 -0.5 0.1 -0.7 0.3 L 38.6 34.3 c -0.4 0.4 -0.4 1 0 1.4 l 11.2 11.2 c 0.2 0.2 0.5 0.3 0.7 0.3 c 0.3 0 0.5 -0.1 0.7 -0.3 l 1.4 -1.4 l 0.5 -0.5 l 1.6 -1.6 l 0.5 -0.5 l 0.7 -0.7 l 0.5 -0.5 l 6 -6 c 0.2 -0.2 0.3 -0.5 0.3 -0.7 c 0 -0.3 -0.1 -0.5 -0.3 -0.7 l -6 -6 l 0.7 -0.7 l 0.5 -0.5 l 1.6 -1.6 l 6.3 6.3 C 66.3 32.6 66.8 33.8 66.8 35 Z" 
/>		 <g><linearGradient id="SVGID_4_" gradientUnits="userSpaceOnUse" x1="64.4593" y1="27.1702" x2="58.9221" y2="41.3209">
<stop style="stop-color: rgb(255, 255, 255); stop-opacity: 0;" offset="0" /><stop style="stop-color: rgb(255, 255, 255); stop-opacity: 0.3;" offset="1" />
</linearGradient>			 <path class="st8" d="M 77.7 35 c 0 1.2 -0.5 2.4 -1.3 3.2 l -1.5 1.5 c -1.7 0.2 -3.7 0.3 -5.8 0.2 l 4.2 -4.2 c 0.2 -0.2 0.3 -0.5 0.3 -0.7 c 0 -0.3 -0.1 -0.5 -0.3 -0.7 L 62.1 23.1 c -0.2 -0.2 -0.5 -0.3 -0.7 -0.3 c -0.3 0 -0.5 0.1 -0.7 0.3 l -1.5 1.4 L 58.7 25 l -1.6 1.6 l -0.5 0.5 l -0.7 0.7 l -0.5 0.5 l -6 6 c -0.4 0.4 -0.4 1 0 1.4 l 0.2 0.2 c -1.6 -0.6 -3.1 -1.2 -4.5 -1.9 c 0.2 -0.9 0.6 -1.6 1.2 -2.3 l 6.8 -6.7 l 0.7 -0.7 l 0.5 -0.5 l 1.6 -1.6 l 0.5 -0.5 l 1.7 -1.7 c 0.9 -0.9 2 -1.3 3.2 -1.3 c 1.2 0 2.4 0.5 3.2 1.3 l 11.8 11.8 C 77.2 32.6 77.7 33.8 77.7 35 Z" 
/>			 <linearGradient id="SVGID_5_" gradientUnits="userSpaceOnUse" x1="64.4593" y1="27.1702" x2="58.9221" y2="41.3209"><stop style="stop-color: rgb(255, 255, 255); stop-opacity: 0;" offset="0" />				 <stop style="stop-color: rgb(255, 255, 255); stop-opacity: 0.3;" offset="1" />			 </linearGradient>			 <path class="st9" d="M 77.7 35 c 0 1.2 -0.5 2.4 -1.3 3.2 l -1.5 1.5 c -1.7 0.2 -3.7 0.3 -5.8 0.2 l 4.2 -4.2 c 0.2 -0.2 0.3 -0.5 0.3 -0.7 c 0 -0.3 -0.1 -0.5 -0.3 -0.7 L 62.1 23.1 c -0.2 -0.2 -0.5 -0.3 -0.7 -0.3 c -0.3 0 -0.5 0.1 -0.7 0.3 l -1.5 1.4 L 58.7 25 l -1.6 1.6 l -0.5 0.5 l -0.7 0.7 l -0.5 0.5 l -6 6 c -0.4 0.4 -0.4 1 0 1.4 l 0.2 0.2 c -1.6 -0.6 -3.1 -1.2 -4.5 -1.9 c 0.2 -0.9 0.6 -1.6 1.2 -2.3 l 6.8 -6.7 l 0.7 -0.7 l 0.5 -0.5 l 1.6 -1.6 l 0.5 -0.5 l 1.7 -1.7 c 0.9 -0.9 2 -1.3 3.2 -1.3 c 1.2 0 2.4 0.5 3.2 1.3 l 11.8 11.8 C 77.2 32.6 77.7 33.8 77.7 35 Z" 
/>			 <linearGradient id="SVGID_6_" gradientUnits="userSpaceOnUse" x1="48.4519" y1="20.9041" x2="42.9185" y2="35.0451"><stop style="stop-color: rgb(255, 255, 255); stop-opacity: 0;" offset="0" />				 <stop style="stop-color: rgb(255, 255, 255); stop-opacity: 0.3;" offset="1" />			 </linearGradient>			 <path class="st10" d="M 55.5 21.7 l -1.6 1.6 l -0.5 0.5 l -0.7 0.7 l -1.4 -1.4 c -0.2 -0.2 -0.5 -0.3 -0.7 -0.3 c -0.3 0 -0.5 0.1 -0.7 0.3 L 41 31.8 c -1.2 -0.7 -2.3 -1.5 -3.3 -2.2 l 9.5 -9.6 c 0.9 -0.9 2 -1.3 3.2 -1.3 c 1.2 0 2.4 0.5 3.2 1.3 L 55.5 21.7 Z" 
/>		 </g>	 </g> </g> </svg>
