<?xml version="1.0" encoding="utf-8"?>
<!-- Generator: Adobe Illustrator 26.3.1, SVG Export Plug-In . SVG Version: 6.00 Build 0)  -->
<svg version="1.1" xmlns="http://www.w3.org/2000/svg" xmlns:xlink="http://www.w3.org/1999/xlink" x="0px" y="0px"
	 viewBox="0 0 5764.195 2720.173" style="enable-background:new 0 0 5764.195 2720.173;" xml:space="preserve">
<style type="text/css">
	.st0{display:none;opacity:0.59;}
	.st1{display:inline;fill:#009FE3;}
	.st2{display:inline;opacity:0.44;fill:#009FE3;}
</style>
<g id="Reinzeichnung">
	<path d="M2484.51,1594.141c-29.968-28.677-64.446-50.465-102.477-64.759c-36.249-13.624-75.94-20.531-117.972-20.531
		c-84.676,0-160.313,29.491-218.735,85.285c-29.862,28.518-52.868,62.671-68.378,101.507
		c-15.926,39.878-24.001,84.876-24.001,133.746c0,89.929,32.263,167.743,93.301,225.03c56.79,53.308,132.934,82.667,214.406,82.667
		c44.768,0,85.998-6.946,122.544-20.643c35.827-13.428,68.159-33.719,96.096-60.305c62.175-57.181,95.042-139.139,95.042-237.012
		C2574.336,1729.206,2542.43,1649.3,2484.51,1594.141z M2395.115,2029.363c-28.365,53.602-76.967,80.781-131.054,80.781
		c-54.159,0-102.866-27.352-131.366-81.298c-26.092-49.386-39.883-119.836-39.883-203.734c0-90.478,15.181-164.69,43.901-214.612
		c28.527-49.586,75.883-74.728,127.348-74.728c56.203,0,105.847,29.156,134.15,86.657c24.27,49.307,37.098,118.205,37.098,199.245
		C2435.309,1907.853,2421.41,1979.671,2395.115,2029.363z"/>
	<path d="M3707.874,2034.385c-14.438-18.588-28.319-37.613-41.973-55.834c-56.793-75.788-110.525-147.491-170.246-215.171
		c52.197-44.418,160.305-157,175.561-172.255c44.753-44.753,123.801-43.973,123.801-43.973v-21.938H3549.3v21.724
		c0,0,76.232,2.613,76.232,25.389c0,51.012-224.353,237.04-227.858,237.04v-219.009c0-19.227,13.853-28.478,28.227-33.685
		c16.539-5.992,65.244-9.42,65.244-9.42v-22.038h-300.867v22.062c0,0,48.116,2.65,64.499,10.806
		c14.43,7.184,30.934,16.622,30.934,34.823v466.828c0,17.32-15.57,24.582-30.719,31.324c-13.21,5.88-64.715,8.385-64.715,8.385
		v22.022h298.308v-22.044c0,0-49.533-3.613-62.669-9.925c-13.989-6.407-28.243-17.487-28.243-34.859v-217.509l20.44,0.118
		c38.559,44.231,80.295,95.628,112.136,138.113c55.568,74.146,55.353,92.419,55.812,96.254
		c3.578,29.842-55.133,27.965-55.133,27.965v21.887h300.74c0,0,0-14.999,0-22.022
		C3820.762,2098.772,3757.922,2098.819,3707.874,2034.385z"/>
	<path d="M4332.788,2077.156c-16.509,17.824-71.149,17.089-118.724,17.062c0,0-64.613,2.719-79.578-10.852
		c-9.538-8.649-14.104-22.806-14.104-55.548v-202.178h63.008c42.795,0,56.879,12.113,66.722,23.467l0.2,0.222
		c4.816,5.167,12.73,20.294,19.692,37.643c7.521,18.743,12.671,36.498,13.775,47.494l0.747,7.436h24.221v-254.947h-23.836
		l-1.078,7.006c-3.365,21.884-20.25,68.768-33.149,80.939l-0.407,0.412c-8.667,9.411-21.764,23.632-66.887,23.632h-63.008V1550.75
		h74.882c26.702,0,59.076,1.718,78.707,4.176c15.217,1.947,36.315,19.447,57.886,48.012c18.359,24.313,39.711,62.565,42.17,79.32
		c6.2,0,22.97,0,22.97,0v-157.38H3901.07v22.133c0,0,45.464,1.787,68.923,10.803l0.183,0.068
		c14.794,5.338,20.829,15.38,20.829,34.664v464.95c0,17.891-5.976,27.172-20.628,32.036l-0.178,0.061
		c-14.63,6.592-69.129,9.218-69.129,9.218v22.109h529.327l12.107-186.225h-21.77
		C4420.734,1934.695,4372.697,2034.067,4332.788,2077.156z"/>
	<path d="M4918.808,1525.068c0,0,0,16.968,0,22.137c36.288,1.028,74.226,7.593,86.317,17.215
		c16.657,13.814,25.831,54.976,25.831,115.922v266.514l-332.971-421.788h-195.52c0,0,0,15.746,0,22.373
		c8.967,1.129,64.491,6.062,86.046,25.246c15.573,13.861,26.102,40.371,26.102,64.326v335.601c0,62.891-7.376,96.779-23.916,109.834
		c-15.082,11.288-81.422,17.926-81.422,17.926v21.568h246.811c0,0,0-18.248,0-22.003c-34.965-1.873-75.812-10.72-86.508-19.142
		c-11.467-9.029-24.807-29.572-24.807-110.703v-337.925l388.735,494.032h27.608v-446.693c0-36.589,3.078-100.152,23.698-114.757
		l0.137-0.1c15.204-11.246,58.433-15.994,81.503-17.985c0-10.575,0-21.599,0-21.599H4918.808z"/>
	<path d="M2869.719,2089.613l-0.05-0.02c-14.459-5.68-29.746-16.386-29.746-34.716l0.127-529.902H2628.3v21.93
		c0,0,46.518,1.891,69.736,11.14l0.125,0.047c15.226,5.583,30.269,15.621,30.269,34.649v463.543c0,17.6-15.269,27.551-30.355,33.272
		l-0.141,0.055c-11.444,5.441-67.507,10.068-67.507,10.068v21.545h308.926v-21.764
		C2939.351,2099.463,2882.097,2095.055,2869.719,2089.613z"/>
	<path d="M4326.162,1351.712c-22.835-13.377-31.161-28.825-39.804-50.422c-15.729-38.509-278.687-704.021-278.687-704.021
		s-21.674,0-32.747,0c-14.837,41.6-208.921,514.869-274.122,669.189c-17.975,42.543-38.001,69.18-59.378,83.308
		c-23.172,15.314-71.27,15.765-71.27,15.765v29.251h288.691v-29.243c0,0-125.017-0.836-123.59-39.267
		c0.353-9.503,3.17-26.823,16.399-61.218c8.459-21.992,38.712-105.676,55.135-147.661h249.952l72.41,191.197
		c5.582,15,4.843,24.878,3.936,28.899c-5.095,22.598-51.401,22.598-117.928,28.051c0,9.328,0,29.243,0,29.243h381.658v-29.283
		C4396.817,1365.499,4348.979,1365.08,4326.162,1351.712z M3822.305,1077.459l111.011-274.565l107.097,274.565H3822.305z"/>
	<g>
		<path d="M1512.527,2082.174l-0.052-0.021c-23.07-9.063-41.56-26.011-41.56-54.952v-784.19h-318.648v25.582
			c0,0,64.672,2.895,101.372,16.641l0.132,0.049c23.988,8.795,43.554,25.208,43.554,54.882v689.129
			c0,27.53-19.914,43.82-43.645,52.822l-0.149,0.059c-17.109,7.288-98.104,14.899-98.104,14.899v25.175h458.364v-25.406
			C1613.791,2096.842,1528.656,2090.309,1512.527,2082.174z"/>
		<path d="M1556.687,1243.01c0,17.747,0,17.952,0,23.638c147.969,18.298,191.263,143.662,191.754,202.595
			c0.626,75.151-15.361,220.408-191.754,236.296c0,13.477,0,15.416,0,22.847c303.451,0,363.56-158.451,363.56-256.71
			C1920.246,1332.902,1845.455,1236.758,1556.687,1243.01z"/>
	</g>
	<path d="M1211.67,1706.006c-144.378-38.943-271.625-136.826-271.307-302.297l0-684.386c0-47.14,17.565-63.893,50.232-74.936
		c24.006-8.115,97.403-17.004,122.096-17.775c0-4.312,0-29.348,0-29.348l-513.818-0.339c0,0,0,30.692,0,31.022
		c22.444,1.036,90.632,4.989,117.067,18.722c29.658,15.407,48.949,36.822,48.95,72.654c0,0-0.001,653.776-0.001,653.882
		c0,189.388,178.922,336.399,446.782,355.208V1706.006z"/>
	<path d="M1460.548,597.34c0,0,0,26.415,0,29.272c50.414,0.975,126.723,13.91,160.18,36.963
		c33.439,24.392,49.821,97.471,49.821,309.246l9.944,183.382h22.924l9.944-183.382c0-204.434,16.382-284.854,49.821-309.246
		c33.457-23.052,109.766-35.988,160.18-36.963c0-2.858,0-29.272,0-29.272H1460.548z"/>
	<g>
		<path d="M2903.917,1525.072c0,12.041,0,12.179,0,16.037c109.724,14.464,137.733,94.273,136.967,137.449
			c-0.89,50.192-5.031,151.462-136.967,160.313c0,9.144,0,10.459,0,15.5c198.948,0,240.123-107.5,240.123-174.163
			C3144.039,1586.059,3099.83,1520.83,2903.917,1525.072z"/>
	</g>
	<path d="M2694.146,1144.568c-12.073,33.068-84.353,157.491-116.943,191.168c-21.836,21.733-84.339,23.552-146.493,23.552
		c-50.38,0-80.668-2.234-96.422-14.019c-13.796-10.32-29.117-30.503-29.123-74.452V681.639c0-25.784,18.851-39.421,37.935-45.482
		c22.43-7.124,88.031-8.936,88.031-8.936v-29.3h-404.073c0,0,0,26.077,0,29.3c33.707,0.965,72.511,6.389,90.05,14.16
		c23.389,10.297,38.174,29.197,38.175,49.742v621.673c0,23.958-18.847,33.031-38.192,40.462
		c-15.478,5.946-57.682,10.886-89.908,12.263c0,3.987,0,29.198,0,29.198h678.91l15.951-250.15
		C2722.045,1144.568,2700.95,1144.568,2694.146,1144.568z"/>
	<path d="M3467.473,1144.568c-12.074,33.068-84.353,157.491-116.943,191.168c-21.836,21.733-84.339,23.552-146.493,23.552
		c-50.38,0-80.668-2.234-96.422-14.019c-13.795-10.32-29.117-30.503-29.122-74.452V681.639c0-25.784,18.851-39.421,37.935-45.482
		c22.43-7.124,88.031-8.936,88.031-8.936v-29.3h-404.073c0,0,0,26.077,0,29.3c33.707,0.965,72.512,6.389,90.051,14.16
		c23.389,10.297,38.174,29.197,38.175,49.742v621.673c0,23.958-18.847,33.031-38.192,40.462
		c-15.478,5.946-57.682,10.886-89.908,12.263c0,3.987,0,29.198,0,29.198h678.909l15.951-250.15
		C3495.371,1144.568,3474.277,1144.568,3467.473,1144.568z"/>
</g>
<g id="Help" class="st0">
	<g>
		<path class="st1" d="M2686.73,3247.61c-1.072,0.062-7.99,0.086-9.062,0.086c-35.632,0-55.311-19.644-55.311-43.981l0.003-80.852
			c0-4.36-1.576-7.525-6.134-9.903c-3.56-1.786-10.691-2.18-13.659-2.377v-1.379h61.596v1.379
			c-3.572,0.197-10.691,1.195-14.066,2.18c-4.939,1.589-6.134,5.345-6.134,9.693l-0.003,80.864c0,1.503,0.074,2.993,0.222,4.446
			C2645.321,3232.526,2664.937,3244.942,2686.73,3247.61z"/>
		<path class="st1" d="M2706.414,3109.204v1.379c3.954,0.197,14.054,1.195,19.202,4.754c4.36,3.165,6.725,11.282,6.725,26.727
			c0,0-0.013,7.068,0.013,7.411l1.432,25.31c0.005,0.065,0.1,0.065,0.105,0l1.593-25.232c0.023-0.27,0.034-8.277,0.034-8.277
			c0-14.066,1.379-22.971,6.331-26.333c1.589-1.133,4.015-2.008,6.651-2.66c4.237-1.072,8.991-1.576,11.565-1.7v-1.379H2706.414z"/>
	</g>
	<path class="st2" d="M1116.683,2632.504c-14.231-18.813-28.382-37.698-42.068-55.96
		c-56.921-75.958-110.773-147.823-170.628-215.654c49.403-44.144,90.65-85.612,134.156-130.076
		c13.078-13.366,26.6-27.187,41.8-42.566c33.391-33.392,75.667-40.654,116.379-43.529l7.7-0.543v-21.988H957.753v21.772
		c0,0,6.061,0.645,8.087,0.8c54.718,4.178,68.122,12.737,68.317,24.646c0.237,14.517-23.968,48.245-68.607,95.657
		c-39.686,42.152-156.25,141.916-159.764,141.916l0-219.501c0-19.27,13.707-29.06,28.291-33.761
		c14.003-4.098,44.08-8.212,57.584-8.991l7.806-0.45v-22.087H597.923v22.112l7.833,0.427c14.846,0.809,43.633,4.985,56.811,10.404
		c14.91,6.221,31.004,16.659,31.004,34.901v467.878c0,17.359-15.224,25.568-30.788,31.395c-9.017,3.468-39.298,6.978-57.038,7.968
		l-7.822,0.437v22.071h298.979v-22.094l-7.846-0.416c-15.307-0.81-45.732-5.751-54.964-9.532
		c-14.021-6.421-28.306-17.526-28.306-34.938v-217.998l20.486,0.118c38.646,44.33,80.476,95.843,112.388,138.423
		c55.693,74.313,55.594,92.615,55.938,96.471c1.586,17.759-12.37,24.887-47.579,27.465l-7.678,0.562v21.936h301.416v-22.071
		l-7.823-0.437C1170.516,2693.231,1130.395,2650.768,1116.683,2632.504z"/>
	<path class="st2" d="M510.531,1658.935c-18.813,14.231-37.698,28.382-55.96,42.068c-75.959,56.921-147.823,110.773-215.654,170.628
		c-44.143-49.402-85.612-90.65-130.076-134.156c-13.366-13.078-27.187-26.6-42.566-41.8
		c-33.392-33.391-40.654-75.667-43.529-116.379l-0.543-7.7H0.215v246.268h21.772c0,0,0.645-6.061,0.8-8.087
		c4.178-54.717,12.737-68.122,24.646-68.317c14.517-0.237,48.245,23.969,95.657,68.607
		c42.152,39.686,141.916,156.25,141.916,159.764l-219.501,0c-19.27,0-29.06-13.707-33.761-28.291
		c-4.098-14.003-8.212-44.08-8.991-57.584l-0.45-7.806H0.215v301.544h22.112l0.427-7.833c0.808-14.846,4.985-43.633,10.404-56.811
		c6.221-14.909,16.659-31.004,34.901-31.004h467.878c17.359,0,25.568,15.224,31.395,30.787c3.468,9.018,6.978,39.298,7.968,57.038
		l0.436,7.822h22.071v-298.979h-22.094l-0.415,7.846c-0.81,15.307-5.751,45.732-9.532,54.964
		c-6.421,14.021-17.526,28.306-34.937,28.306H312.831l0.118-20.486c44.33-38.646,95.843-80.476,138.423-112.388
		c74.313-55.693,92.615-55.594,96.471-55.938c17.759-1.586,24.887,12.37,27.466,47.579l0.562,7.678h21.936v-301.416h-22.071
		l-0.436,7.823C571.259,1605.102,528.796,1645.223,510.531,1658.935z"/>
	<path class="st2" d="M5677.015,1649.335c-18.813,14.231-37.698,28.382-55.96,42.068
		c-75.958,56.921-147.823,110.773-215.654,170.628c-44.144-49.402-85.612-90.65-130.077-134.156
		c-13.366-13.078-27.187-26.6-42.566-41.8c-33.392-33.391-40.654-75.667-43.528-116.379l-0.543-7.7h-21.987v246.268h21.772
		c0,0,0.645-6.061,0.8-8.087c4.178-54.717,12.737-68.122,24.646-68.317c14.517-0.237,48.245,23.969,95.657,68.607
		c42.152,39.686,141.916,156.25,141.916,159.764l-219.501,0c-19.271,0-29.06-13.707-33.761-28.291
		c-4.098-14.003-8.212-44.08-8.991-57.584l-0.45-7.806h-22.087v301.544h22.112l0.427-7.833c0.808-14.846,4.984-43.633,10.403-56.811
		c6.222-14.91,16.659-31.004,34.901-31.004h467.878c17.359,0,25.567,15.224,31.395,30.788c3.467,9.018,6.978,39.298,7.968,57.038
		l0.436,7.822h22.071v-298.979h-22.093l-0.416,7.846c-0.81,15.307-5.751,45.732-9.532,54.964
		c-6.421,14.021-17.526,28.306-34.937,28.306h-217.998l0.118-20.486c44.331-38.646,95.843-80.476,138.424-112.388
		c74.312-55.693,92.615-55.593,96.471-55.938c17.758-1.586,24.887,12.37,27.465,47.579l0.562,7.678h21.936v-301.416h-22.071
		l-0.436,7.823C5737.743,1595.502,5695.28,1635.623,5677.015,1649.335z"/>
	<path class="st2" d="M1117.633,510.026c-14.231-18.813-28.382-37.698-42.068-55.96c-56.921-75.959-110.773-147.823-170.628-215.655
		c49.403-44.143,90.65-85.612,134.156-130.076c13.078-13.366,26.6-27.187,41.8-42.566c33.391-33.392,75.667-40.654,116.379-43.529
		l7.7-0.543V-0.29H958.703v21.772c0,0,6.061,0.645,8.087,0.8c54.718,4.178,68.122,12.737,68.317,24.646
		c0.237,14.517-23.968,48.245-68.607,95.657C926.813,184.737,810.249,284.5,806.736,284.5l0-219.501
		c0-19.27,13.707-29.06,28.291-33.761c14.003-4.098,44.08-8.212,57.584-8.991l7.806-0.45V-0.29H598.873v22.112l7.833,0.427
		c14.846,0.808,43.633,4.985,56.811,10.404c14.91,6.221,31.004,16.659,31.004,34.901v467.878c0,17.359-15.224,25.568-30.788,31.395
		c-9.017,3.468-39.298,6.978-57.038,7.968l-7.822,0.436v22.071h298.979v-22.094l-7.846-0.415
		c-15.307-0.81-45.732-5.751-54.964-9.532c-14.021-6.421-28.306-17.526-28.306-34.937V312.325l20.486,0.118
		c38.646,44.33,80.476,95.843,112.388,138.423c55.693,74.313,55.594,92.615,55.938,96.471c1.586,17.759-12.37,24.887-47.579,27.465
		l-7.678,0.562v21.936h301.416V575.23l-7.823-0.436C1171.466,570.753,1131.345,528.29,1117.633,510.026z"/>
</g>
</svg>
